<svg width="31" height="30" viewBox="0 0 31 30" fill="none" xmlns="http://www.w3.org/2000/svg">
<path d="M25.8327 21.2502V14.3153C25.8327 13.6474 25.8321 13.3132 25.7482 13.0024C25.6738 12.727 25.5517 12.4663 25.3865 12.2308C25.2001 11.965 24.9409 11.7446 24.4214 11.3048L18.2214 6.05478C17.2571 5.23818 16.7749 4.83008 16.2322 4.67478C15.7541 4.53793 15.2444 4.53793 14.7662 4.67478C14.224 4.82996 13.7425 5.23767 12.7796 6.05305L6.57751 11.3048C6.05809 11.7446 5.79899 11.965 5.61255 12.2308C5.44733 12.4663 5.32431 12.727 5.24994 13.0024C5.16602 13.3132 5.16602 13.6474 5.16602 14.3153V21.2502C5.16602 22.4151 5.16602 22.9973 5.36266 23.4567C5.62485 24.0693 6.12743 24.5565 6.76042 24.8103C7.23516 25.0006 7.837 25.0006 9.04068 25.0006C10.2444 25.0006 10.8469 25.0006 11.3216 24.8103C11.9546 24.5565 12.457 24.0694 12.7192 23.4568C12.9159 22.9974 12.916 22.4149 12.916 21.2501V20.0001C12.916 18.6194 14.0726 17.5001 15.4993 17.5001C16.9261 17.5001 18.0827 18.6194 18.0827 20.0001V21.2501C18.0827 22.4149 18.0827 22.9974 18.2793 23.4568C18.5415 24.0694 19.0441 24.5565 19.6771 24.8103C20.1518 25.0006 20.7537 25.0006 21.9573 25.0006C23.161 25.0006 23.7635 25.0006 24.2383 24.8103C24.8713 24.5565 25.3737 24.0693 25.6359 23.4567C25.8325 22.9973 25.8327 22.4151 25.8327 21.2502Z" stroke="black" stroke-width="2" stroke-linecap="round" stroke-linejoin="round"/>
</svg>
