<svg width="15" height="15" viewBox="0 0 15 15" fill="none" xmlns="http://www.w3.org/2000/svg">
<rect width="15" height="15" fill="white"/>
<path d="M7.5 9.375C8.16304 9.375 8.79892 9.11161 9.26777 8.64277C9.73661 8.17393 10 7.53804 10 6.875V3.125C10 2.46196 9.73661 1.82607 9.26777 1.35723C8.79892 0.888392 8.16304 0.625 7.5 0.625C6.83696 0.625 6.20107 0.888392 5.73223 1.35723C5.26339 1.82607 5 2.46196 5 3.125V6.875C5 7.53804 5.26339 8.17393 5.73223 8.64277C6.20107 9.11161 6.83696 9.375 7.5 9.375ZM6.25 3.125C6.25 2.79348 6.3817 2.47554 6.61612 2.24112C6.85054 2.0067 7.16848 1.875 7.5 1.875C7.83152 1.875 8.14946 2.0067 8.38388 2.24112C8.6183 2.47554 8.75 2.79348 8.75 3.125V6.875C8.75 7.20652 8.6183 7.52446 8.38388 7.75888C8.14946 7.9933 7.83152 8.125 7.5 8.125C7.16848 8.125 6.85054 7.9933 6.61612 7.75888C6.3817 7.52446 6.25 7.20652 6.25 6.875V3.125ZM12.5 6.875C12.5 6.70924 12.4342 6.55027 12.3169 6.43306C12.1997 6.31585 12.0408 6.25 11.875 6.25C11.7092 6.25 11.5503 6.31585 11.4331 6.43306C11.3158 6.55027 11.25 6.70924 11.25 6.875C11.25 7.86956 10.8549 8.82339 10.1516 9.52665C9.44839 10.2299 8.49456 10.625 7.5 10.625C6.50544 10.625 5.55161 10.2299 4.84835 9.52665C4.14509 8.82339 3.75 7.86956 3.75 6.875C3.75 6.70924 3.68415 6.55027 3.56694 6.43306C3.44973 6.31585 3.29076 6.25 3.125 6.25C2.95924 6.25 2.80027 6.31585 2.68306 6.43306C2.56585 6.55027 2.5 6.70924 2.5 6.875C2.5011 8.09206 2.94608 9.26693 3.7515 10.1794C4.55692 11.0918 5.66749 11.6791 6.875 11.8313V13.125H5.625C5.45924 13.125 5.30027 13.1908 5.18306 13.3081C5.06585 13.4253 5 13.5842 5 13.75C5 13.9158 5.06585 14.0747 5.18306 14.1919C5.30027 14.3092 5.45924 14.375 5.625 14.375H9.375C9.54076 14.375 9.69973 14.3092 9.81694 14.1919C9.93415 14.0747 10 13.9158 10 13.75C10 13.5842 9.93415 13.4253 9.81694 13.3081C9.69973 13.1908 9.54076 13.125 9.375 13.125H8.125V11.8313C9.33251 11.6791 10.4431 11.0918 11.2485 10.1794C12.0539 9.26693 12.4989 8.09206 12.5 6.875Z" fill="black"/>
</svg>
